<svg xmlns="http://www.w3.org/2000/svg" viewBox="0 0 573 312" width="573" height="312"><defs><style>.cls-1{fill:#7ecef4;}.cls-2{fill:#231815;}.cls-3{fill:#fff;}.cls-4{fill:#004098;}</style></defs><g id="世界地図"><path class="cls-1" d="M131.546,204.0222c-1.9639-.7128-10.957,4.8179-12.4785,3.9248-1.52-.8911-2.4063-5.8266-4.3706-6.3627-1.9619-.5352-.8868-3.271-1.2657-3.5669-.3808-.2974-8.8042-8.0884-9.4389-8.8619-.6328-.7719.1269-2.6752,0-3.4487-.127-.772-5.1455-6.4521-5.1455-6.4521l-.524-.7129c-.5214-.7134,2.3765-2.4536,2.33-2.854a33.1777,33.1777,0,0,0-.3808-4.9068c-.3325-.935-4.8448-1.2036-8.0762-.2671s-10.0234-3.0776-12.3979-3.6123c-2.3765-.5346-6.2242-4.5048-6.8892-4.9067-.666-.4-5.89.7583-6.9839,1.2935s.3809,4.4609,0,5.352c-.38.8931-4.6558,1.8735-6.4609,1.7842s-2.47-2.8535-2.8492-3.5684c-.3808-.7129-9.2167-3.39-9.6928-3.8354-.4741-.4458,1.5215-2.8535,0-4.3706-1.52-1.5152-13.0161,3.48-14.8213,4.6382s-7.2212-.5352-7.8858-.6241-1.8051,2.1407-1.9243,3.2119c-.1211,1.0694-7.0068,3.7461-7.6714,4.816-.6665,1.0708.3789,6.4218-.8549,8.3842C12.5279,181.04,1.0313,192.5457,1.317,194.5081S-.2978,206.4607.0811,207.7991c.3809,1.3369,13.2066,19.4443,15.107,19.8916,1.9.4434,5.6064-2.6777,7.0307-2.9434,1.4263-.2685,4.0865,1.0694,6.271.7129,2.1861-.3564,9.0264-5.1718,11.9722-5.5322,2.9443-.3564,2.4595,5.0283,4.085,4.9981,1.6162-.03,5.2256-1.8741,6.3022-1.9913,1.0772-.1211,4.0532,4.2784,4.4976,6.003S53.51,239.1653,54.27,241.011c.76,1.8438,6.6665,10.9863,7.4268,12.3672.7612,1.3838-2.0425,5.6191-2.9444,7.0029-.9038,1.3838.5225,7.8047,1.0918,9.1729.57,1.3662,2.8511,2.4961,4.18,3.8652,1.3311,1.3682,3.041,9.2754,3.5474,11.1211.5073,1.8428.539,2.4658,2.3442,3.1787,1.8042.7158,2.1846,9.4571,2.5654,10.2608.379.8007,3.04,2.9423,4.5606,2.9423s1.8052-2.0517,2.7559-2.498c.95-.4443,9.12-1.248,9.88-2.14.7613-.8945,10.0713-10.17,10.9268-11.8652s-.0952-6.2422.5708-7.58,4.18-2.9433,4.085-4.2812-2.2813-5.085-1.6148-6.5147c.6646-1.4257,2.2793-.71,2.47-1.4257.1905-.7129,5.5113-4.3721,6.3662-5.7979s.95-5.8857.6646-6.7773c-.2856-.8946.19-3.4805.2856-4.2842.0938-.8008-1.0454-1.4258-1.8051-2.4082-.7618-.9785-.8555-6.2422.1884-9.541,1.0455-3.3028,5.6065-4.2842,6.271-4.5508.6646-.2686,7.6333-7.0156,8.774-8.2656,1.1391-1.2481-.127-1.9043-.0635-3.0909.0635-1.19,3.9263-1.2509,3.4839-2.6186-.4444-1.3672,2.3432-7.9673,3.04-9.7515S133.51,204.7356,131.546,204.0222Zm-37.4351,44.896c-.1889-1.3076-2.8354-8.1816-2.1528-8.5019a1.6718,1.6718,0,0,1,2.4277,1.6045c-.2309.9511,2.6392,5.3535,2.5122,6.3633C96.773,249.3958,94.3014,250.2268,94.1109,248.9182Zm2.2178-18.4638c-.0952-1.3379,3.0332-4.1026,5.0352-4.0117,1.9956.0878,2.7553,3.746.6645,4.7314-2.0893.9873-.5693,4.4531-3.1831,4.7227C96.232,236.1624,96.4239,231.7932,96.3287,230.4544Zm5.3843,27.9209c-1.1406-1.13-2.4082-5.59-2.7241-6.48-.3169-.8945-2.0728-1.9668-1.2041-2.3027a6.0977,6.0977,0,0,1,2.3447,0c.19.0791,1.8989,2.3593,3.1455,3.9072C104.52,255.0462,102.8531,259.5052,101.713,258.3753Z" transform="translate(-0.0309 -0.1916)"/><path class="cls-1" d="M278.4659,247.4046a74.2637,74.2637,0,0,0-8.33-1.6377c-.3159.1181-1.0757,1.2509-1.7739,1.6377-.6963.3838-3.1025,2.3476-2.8491,3.4775s-1.3306,2.6172-2.0274,2.6172-2.2807-3.0947-3.2929-2.7383-6.5249,7.4932-7.3482,7.8526c-.8232.3574-3.4834-.06-3.8008.414-.3159.4776.3174,2.7373-1.0771,3.5684-1.3931.834-8.4238,6.3027-9.8179,6.8984s-4.56,4.9365-4.18,6.0664c.3809,1.127,2.7237,1.961,2.66,3.27s-1.9,1.5469-1.4561,3.2715c.4424,1.7227,7.4747,11.7139,7.5367,12.545.0634.8339-.3155,2.7373-.062,3.1543l.2524.414s2.7871,2.4385,3.61,2.6162,2.9776-2.3174,4.18-2.1386c1.2041.1777,3.6743.77,4.5611-.3565.8867-1.13.6962-3.1514,2.7236-3.1514s12.0356-.2392,12.3515.4746,1.2671,3.9844,2.66,3.9249,4.1182-2.14,4.3706-1.7256c.2534.417,0,2.1.19,2.9824s3.1679,1.8369,3.42,2.4287c.2539.5957-.6328,2.3779.3808,3.2119s7.1572,1.7822,7.5381,1.13c.3809-.6553,4.1787.4775,5.13-.06.9492-.5342,3.8017-1.4258,4.1816-2.1993.378-.7734.378-6.1845,2.85-7.6718,2.4688-1.4864,6.0157-3.628,6.27-5.2325s3.6435-16.5,2.1211-18.2851c-1.5176-1.7832-6.27-11.0615-8.2637-11.5059-1.9971-.4472-3.8008-.625-4.75-1.873-.9512-1.2481,0-9.9922-.57-10.4356-.5713-.4472-3.0879-.4472-3.043-1.6074.0479-1.1572.0967-4.5928-.332-4.7256-.4268-.1357-4.6084,4.5928-5.3184,6.42-.7143,1.8282.9492,6.4239-.2871,6.8252-1.2339.4024-10.1182-3.7461-9.5488-4.9062.5713-1.16,1.7588-3.0762,1.8056-3.2119A1.122,1.122,0,0,0,278.4659,247.4046Z" transform="translate(-0.0309 -0.1916)"/><path class="cls-1" d="M226.9381,219.6018c-1.34-.2412-7.4732-8.206-8.1079-8.1455-.6328.0591-1.7735,1.189-2.3428.8916-.5713-.2978-4.0532-1.5454-4.0532-1.5454s-1.1407,3.8643-.8887,4.3989c.2539.5362,8.4253,11.6553,9.8184,11.8936a8.6062,8.6062,0,0,1,4.0546,1.665c1.1387.9512,3.9263,6.0664,6.08,6.4229s5.5747,2.2607,6.7139.5957,1.7734-5.9492.6343-6.78a9.7344,9.7344,0,0,1-3.4219-3.5683c-.76-1.6641-4.75-4.8155-5.8267-5.3506C228.5211,219.5413,228.5846,219.9016,226.9381,219.6018Z" transform="translate(-0.0309 -0.1916)"/><path class="cls-1" d="M254.8707,207.1145c-.6919.396-3.7993,8.2666-4.4341,8.2666-.6313,0-3.6724.5938-3.6724.5938l-1.0771,1.6054s-2.8506-1.9619-2.9775-1.3667-.76,7.0171.76,7.8482c1.5215.834,3.42,1.7246,3.1045,3.0332s-.19,3.2119,1.2661,3.2725c1.458.0576,4.1817-2.3809,4.9414-1.8467.76.5381,1.0772,2.0849,2.3433,1.8467s3.6738-2.6768,3.61-3.3907c-.0635-.7158-2.0894-2.7939-.8868-4.1025s3.7373-2.7949,3.4839-3.6289c-.2539-.8311-2.4067-3.0318-2.3432-3.9248.0634-.8911,2.0893-5.0547,1.583-5.5288C260.066,209.3157,256.3287,206.2825,254.8707,207.1145Z" transform="translate(-0.0309 -0.1916)"/><path class="cls-1" d="M251.5138,234.47c-1.3472-.4111-2.5967-.7734-3.0391-.3564a3.7077,3.7077,0,0,1-2.8511.3564c-.5058-.3564-3.61-1.5469-3.9262-1.2481-.3169.2969-2.4078,2.9131-1.0772,3.5655,1.33.6562,5.0669,1.6045,6.3965,2.32,1.331.7139,7.665,2.6738,9.5654,1.9033,1.9-.7734,2.7876-2.2021,1.9-3.0937S253.3492,235.0266,251.5138,234.47Z" transform="translate(-0.0309 -0.1916)"/><path class="cls-1" d="M278.1187,216.9265c-.6391-.8471-3.6757-3.8657-5.1318-3.33s-4.3071,3.1514-5.2573,3.6275c-.95.4741-2.66,2.9126-3.23,3.686s-2.689,1.5655-3.1494,2.7158-.1724,4.48,0,5.1944,2.3262,4.2207,2.0727,4.876c-.2539.6523-.4428,2.5566.6963,2.4961,1.1407-.0577,3.293-2.378,4.6241-2.378,1.3295,0-.0635-2.6767.3173-2.7344.3789-.06,2.4063,2.1416,3.4834.7735s1.0772-2.6162.3794-3.2119-2.7236-1.6651-2.5337-2.3809c.19-.7129,3.1045-1.8818,3.295-2.6348.1889-.7519,1.2661-2.538.1889-2.538s-4.2436-.2354-3.99-.5948C270.1363,220.137,278.7306,217.7405,278.1187,216.9265Z" transform="translate(-0.0309 -0.1916)"/><path class="cls-1" d="M280.8409,224.0042c-.7373.19.8247,1.7226.8247,2.3174s1.3931,1.0117,1.7735,1.3086c.3793.2988.76,1.6074.3159,1.8427-.4424.2383-3.3418.0518-3.0967.919s-.1333,4.0781,1.1328,3.957c1.2676-.1172,5.3223-1.7246,5.7637-1.7246a6.0312,6.0312,0,0,1,2.1543,1.7285c.126.2959-2.0274,5.6465-1.4571,6.0029a58.3788,58.3788,0,0,0,8.1065,2.0821c1.71.2383,2.3447-1.3086,3.5469-1.1875,1.206.1181,4.1816,3.3867,6.0185,3.4472s8.9951-2.082,9.1221-3.39.19-4.2246-.3174-4.6983-3.3564.8907-4.1152,1.3682c-.7608.4746-3.3594.4746-3.8008-.1211-.4443-.5918.1269-2.0781-.5713-2.5556-.6973-.4747-8.4229-6.3633-9.6289-7.7315-1.2022-1.3662-3.8643-2.0215-4.4326-1.6045-.57.417-1.7735,2.082-2.4707,2.1992-.6953.1211-2.6592.0606-2.7862-.9511-.1269-1.01-.3808-2.9131-1.2675-3.209A13.0171,13.0171,0,0,0,280.8409,224.0042Z" transform="translate(-0.0309 -0.1916)"/><path class="cls-1" d="M32.67,76.886c-.5952.0742-1.5835,2.4971-1.71,2.6753-.125.1782-2.2159,1.13-2.2793,1.5469s-.4429,2.7344,0,2.9731.3354,1.3672-.2115,1.9624c-.5488.5938-3.2089,2.8535-.9292,2.7344A12.3111,12.3111,0,0,0,34.3814,85.27c1.0137-1.3081-.1269-2.438,1.0757-3.627,1.2041-1.19,1.2676-2.1421.8233-2.7949C35.838,78.1927,33.62,76.7669,32.67,76.886Z" transform="translate(-0.0309 -0.1916)"/><path class="cls-1" d="M44.0724,65.305c-.4273-.0044-2.6133-.0889-2.8506.2221s-2.8506,3.5684-2.9927,3.9248c-.1436.3579-.6177,3.39-.95,3.7466s1.33,1.4712,1.4731,2.186a9.1776,9.1776,0,0,1-.6181,3.0772c-.1905.5347,1.7568,1.1147,2.0893,2.4531s.8111,4.7119.4307,4.89a3.2378,3.2378,0,0,1-.7632.2387s-2.5967.2964-1.8369,1.606c.7617,1.3081,2.4717,2.1391,2.0908,2.9126-.3789.7734-3.2329,4.2812-3.61,4.9956-.3809.7134.601,1.7539,1.0771,1.813.4741.06,5.479-1.813,6.1758-1.9322s5.9219-.3564,6.2388-.6543a2.4034,2.4034,0,0,0,0-2.0815c-.3169-.2373.95-1.7842,1.9638-2.7358s.3008-3.8794-.601-3.9234c-.9034-.0454-2.5669.8477-2.2813-1.0273.2842-1.8716.855-5.6636.57-6.3311-.2856-.6694-2.47-4.0156-3.23-4.1924-.76-.18-2.375-.6689-2.1861-1.3837.19-.7144,4.0381-3.39,3.2783-4.6831S45.1178,65.3157,44.0724,65.305Z" transform="translate(-0.0309 -0.1916)"/><path class="cls-1" d="M370.3429,54.2893c-1.0752,0-2.6582-2.6772-3.8643-2.6772-1.2021,0-2.2178,1.3672-4.2451,1.3081-2.0244-.0586-.3779-1.4863-.5039-1.8428s-6.0195-8.2949-9.44-9.188c-3.42-.8911-7.6015-2.23-8.9306-2.1406s-1.5205,2.4971-1.9942,3.5684c-.4775,1.0708-2.5654.5346-4.372.4453-1.8038-.0889-.378-1.8731-.9493-3.479s-15.1064-1.8716-20.333-2.4082c-5.2246-.5347-3.1367-5.7071-4.8467-5.7071s-7.5048,1.1587-8.9316.6241c-1.4228-.5367,1.9-2.3194.7617-2.9444-1.1416-.624-15.2031,1.3687-16.3427,2.1709-1.14.8037-1.4244,1.7539-2.438,1.3384-1.0137-.417-2.8824-7.1367-4.1485-7.6123-1.2676-.4761-5.8281.2368-9.1216.1191s-4.6875-2.497-7.727-2.0214c-3.041.476-6.8418.9516-7.7285-.2383s7.7285-4.6382,7.7285-4.6382-.6343-4.7568-1.1406-5.1133c-.5059-.3584-7.7285,1.1885-10.8951,1.6646s-.2539-6.5415-1.1406-7.4932-3.7993.3569-6.9673,1.189c-3.1665.8325-.2524,1.665-3.9262,4.8764s-4.5606-.3564-6.2076-1.1889-4.3066.476-8.8676,2.1406-2.1543,5.8271-4.9414,7.7607-3.8008,3.18-3.8008,3.5381c0,.3565,5.1953,4.9351,5.1953,4.9351s-2.7554,2.4975-4.2769,2.4975a7.24,7.24,0,0,1-4.2753-1.6953c-1.52-1.0693-.2837-7.1347-1.2359-8.1167-.9482-.98-3.6089-1.1587-4.9394-1.1587s-2.9444,2.4077-3.8,4.46,1.9941,10.5249,2.0893,11.2393,5.13,1.6938,5.8916,1.8735c.7583.1782,5.4146,3.2993,5.0352,4.0137a7.8224,7.8224,0,0,1-2.66,2.854c-1.4263.8911-3.896-.98-4.8462-.8916s-2.6606-4.461-2.6606-4.461a11.6258,11.6258,0,0,0-3.23.8931c-1.1406.6235.1885,5.083-.57,7.582-.7613,2.4971-2.7554,0-3.61,0s-3.896,2.23-4.56,1.7842c-.6665-.4473.4741-3.9268,1.1386-3.9268.6665,0,4.7515-7.1347,5.2271-7.9384s-.19-5.2617-1.1406-6.6c-.95-1.3369,1.1406-5.4414,1.1406-6.1548s-5.9868-.8911-7.2227-.1782c-1.2339.7133-4.94,5.62-4.94,6.8676,0,1.25,3.041,7.94,2.2812,8.7422a2.4376,2.4376,0,0,1-2.66.1787c-.2857-.2675-1.1406-3.123-1.4263-3.21-.2856-.09-6.9355-1.7842-9.0264-.18-2.0893,1.606-4.94,1.3384-7.8857,1.4277s-8.8359,3.479-10.07,3.479c-1.2359,0-.9517-1.4277-2.7554-1.4277-1.8052,0-2.8506,3.479-3.7055,5.3525s-2.2813,0-2.9458,0-6.271,2.0513-6.8409,3.8355-3.8008,2.854-4.6557,3.2993-6.5547-2.3188-6.84-2.7646-.3808-4.0137-.5713-5.085c-.1884-1.0693-2.3745-1.2476-2.47-2.2295s2.9458-2.23,3.5152-2.23c.5712,0,3.3252,2.4971,4.6562,2.8555,1.3306.3564,5.5107-.4473,6.6514-1.0713,1.1391-.624,1.4248-3.8354,1.4248-5.5308s-5.89-6.3325-7.6958-8.1166-5.8916-1.8736-8.9312-1.8736-6.1772-.1777-8.6469,0-4.5606.5352-5.2256-.5347,2.6606-3.3007,2.375-3.6572-2.1846-.4458-3.6109-.4458c-1.4243,0-2.6587,2.854-4.18,4.103s-3.8945-1.3383-5.13-1.9624-7.0308,2.1407-8.1714,2.9444-3.7041.3564-4.8447.3564-3.8008,4.6382-5.9854,7.0459c-2.186,2.41-3.2314.8931-4.9414,1.25s-2.8506,2.8536-3.041,3.8355S65.45,47.9563,62.9591,49.9187s-2.26,1.8716-3.4,2.4971-.95,6.1528-.57,7.2241,2.0893,1.5166,2.375,1.7842-.95,2.1406-1.6148,3.8657c-.665,1.7271,1.2354,4.6079,2.0908,4.875.855.2691,5.2251-1.6933,6.3658-1.604,1.1391.0889,1.8989,8.2061,3.1665,8.6817s4.18-.7144,4.18-.7144l.76-.5937c.76-.5953,4.1816-9.5142,4.1816-9.5142l.2539-.4761c.252-.4761,4.3067-2.3794,4.18-3.2119s-2.1543-2.021-3.1679-3.21c-1.0118-1.19,2.0273-4.2827,2.6606-4.52s3.293-.9516,4.8145-1.665c1.52-.7129,4.434-4.6392,5.9536-5.2329,1.5195-.5952,5.9551-1.3081,6.4614-.5952s-1.7739,6.185-2.28,6.6606c-.5078.4761-6.3345,2.3779-6.3345,2.3779l-.7612,1.0708c-.76,1.07-.6963,8.6231.127,9.5147s0,3.27.6342,3.5683c0,0,9.9434-2.7949,10.7051-3.0927.76-.2974,3.8628-3.27,4.5591-3.0923s3.1045,3.33,1.9,4.103c-1.2026.7734-8.2969,3.0923-8.6138,3.4492s-5.2573.3262-6.9673.7735c-1.71.4453-1.0454,1.873-.8549,3.0317.19,1.16,1.9956,2.7661,1.9956,3.4956s-3.5171,2.6607-4.2769,3.8193c-.76,1.16-1.8052,2.586-3.42,2.23a123.72,123.72,0,0,0-13.3965-.5346c-2.5654.0893-2.8491-.4458-3.706-1.606-.855-1.16-.5694-3.39-.9488-3.7466s-3.041-.0888-4.1816.4473-.4741,3.3887-.5693,4.6377-2.47,1.2495-3.7056,1.5171-2.0274,3.5967-2.9776,5.5591-3.99,2.2011-5.2573,2.914a7.0053,7.0053,0,0,0-2.9775,2.7661c-.4429,1.0425-4.1787,1.396-4.75,1.2178a2.8815,2.8815,0,0,0-2.3433,1.0318c-.2539.5542-.5073,1.8823-1.6465,1.2871s-2.4717-1.4869-3.1679-1.2481-1.0772,2.7359-1.2041,3.33c-.127.5952-2.9761.7134-4.3072.7134-1.3291,0-.3154,3.27-.3154,3.9848s6.7134,2.1407,7.6,3.4493-1.2041,12.8437-2.3428,13.7363c-1.1406.8916-2.5351.0591-5.13.417-2.5987.355-4.878,1.8432-6.1456,1.7236s-2.2163-1.1889-3.8007-1.1889c-1.5821,0-5.7637,4.9355-6.9673,6.6005s2.09,3.0318,2.09,3.27-2.09,9.1578-2.47,11.5962c-.3809,2.438,1.2661,4.4595,2.0273,6.3628s4.18.8326,5.3194.8326.2021,3.2929,1.7734,3.8779a14.4833,14.4833,0,0,0,6.209,0c.76-.3731,1.71-2.3023,2.3745-2.4805s3.99,0,5.0352-.0893,6.1772-5.4414,6.7465-6.6-.4756-7.3164-.4756-7.3164a15.0717,15.0717,0,0,0,3.3267-.1783c.4741-.2671-.8569-2.6753.76-2.9428,1.6147-.2671,2.7553.1782,3.9472-.5347s-1.5727-7.2256-1.8579-8.2061,3.9912-1.0713,4.37-1.0713c.3809,0,1.9957,1.606,3.3267,1.606s4.2754-3.5684,5.4146-3.7466,3.1357,1.5171,3.61,3.39,5.606,9.5444,6.7466,10.6142,1.52,3.39,1.52,4.4595-.76,4.2827-.3794,4.6391,4.18-2.8549,4.18-3.6572-.76-2.32.0952-2.32,2.2793-.1767,1.71-2.0517c-.5708-1.8716-4.9414-3.2994-5.13-4.1016a43.7485,43.7485,0,0,0-2.9458-5.4414,23.7294,23.7294,0,0,1-1.9956-4.9956c-.0952-.8023,2.2812-1.6953,2.7554-1.6953.476,0,.0952,2.7661,1.2358,3.1225s5.7,5.9766,5.7,5.9766,3.7061,9.01,4.1817,9.1865c.4746.18,5.13,8.0293,6.5551,7.8511s1.4258-5.085,1.4258-5.085-1.6162-3.7466-1.0454-4.103,5.0352.3564,5.3208,0-1.71-5.4419-1.5195-6.1548c.1884-.7129,6.269-5.8872,7.03-6.1543s5.4161,2.6753,6.5552,2.6753,4.6558-3.8359,5.32-3.6572.2857,4.1919.3809,5.0849,2.5654,1.7842,2.8506,2.3189-.2852,3.6269-1.8687,4.46-8.0444.1191-8.9946.2973-9.8179,4.8179-10.2622,6.0069c-.4424,1.1889,1.2676,4.935,1.9009,6.48.6328,1.5474,6.207-.1176,6.7783-.3564.5693-.2368,5.1938-1.5454,6.0806-.2368s-1.9,5.6484-.95,7.8779-7.126,8.9209-7.7911,9.4556-.0947,4.4594-.0947,5.1738,2.09,4.9946,2.3745,5.62c.2857.6235,5.13,7.2241,5.13,8.5625s3.8008,3.5664,4.1816,4.0137c.3789.4458,3.6739,7.522,5.0669,7.4038s13.2378-7.73,14.1685-9.0381c.9292-1.31-.8672-2.7964,1.0967-3.688,1.9624-.8926,4.5595-4.6982,6.144-5.2915,1.5835-.5952,2.6607-4.1636,2.7876-4.6982s3.5469-4.2227.3789-4.1031-4.2436-3.686-5.0669-5.2334c-.8232-1.5454-4.37-.5952-3.7373.1783s-.4429,3.6274-.6328,4.34c-.19.7148-3.7378,1.0122-4.18.2388-.4443-.7735-3.4839-5.3526-4.1816-6.1846s-3.8643-4.46-3.3569-5.1138,2.3432-2.0229,3.4838-1.3081c1.1407.7129,8.6773,4.1616,9.4385,4.044.76-.12,1.9624-1.5469,2.9126-1.3081.95.2368,1.9009,4.4594,3.5474,4.5771s6.9053,2.0835,8.4248,1.7842a39.7415,39.7415,0,0,1,7.9809,0c2.1529.2388.8872,4.9956.9507,5.8281s1.4561,1.13,1.6465,1.3081.19,2.5576.3789,3.8057c.19,1.2495,3.2949,2.6167,4.1182,3.27s.19,2.082.3159,2.9141,3.3584,7.791,3.9912,8.3842c.6328.5952,1.71.5367,2.1543,1.0108.4424.476-.5078,2.6181,0,3.9853.5059,1.3672,8.6772,14.3907,10.1973,14.2124s2.4712-3.39,2.914-4.5805c.4424-1.1885,2.3428-1.604,2.9761-2.3775s-.5063-9.5732-.5063-9.5732a9.3523,9.3523,0,0,0,1.71-2.26c.19-.7143-.8237-4.2221-.8237-5.1137s2.5654-.8038,3.1362-.982A2.0019,2.0019,0,0,0,193.06,188.71c.104-.98,4.1709-4.46,6.5468-6.1548s.8555-5.62,1.1407-5.8872,5.7-2.6753,5.89-3.7465c.19-1.0694,3.041-2.8536,4.18-2.586s.54,7.3447.6919,8.354c.1528,1.0122,2.8872,2.2012,3.0771,2.438.19.2388-1.14,6.2437-.8867,6.6607s2.0273.6543,2.0908,1.4868c.062.832,2.7241,13.7363,3.23,14.6279s3.61,3.27,5.0034,4.4,4.7027,8.3706,4.7027,8.3706,6.9838,5.4414,7.8388,6.0215,2.1377-.8936,1.9956-1.5166c-.1435-.625-2.518-7.0923-2.707-8.4292-.19-1.3389-4.3237-6.6455-4.9248-7.4478-.6026-.8037-2.4717-.2085-2.8823-.18-.4126.03-3.7373-4.1621-4.2134-4.8164-.4741-.6538-1.2979-8.83-.8233-9.2168s2.2178-2.6464,3.0411-2.6464,5.4472,5.5893,5.4472,5.5893-.2534,2.8555.19,3.0337a12.2276,12.2276,0,0,0,3.9262,0c1.1406-.2388,2.5972-3.9854,3.1045-4.6982s.127-3.6875.127-3.6875a19.5867,19.5867,0,0,0,.6015-4.043c-.1587-.832-3.01-2.021-3.8965-2.5288-.8852-.5073-.76-3.2993-.5058-4.1314s5.0669-3.21,6.3345-3.4492,1.6464,1.5469,2.7871,1.4277c1.1391-.1191,8.9946-5.7089,11.5278-6.8979s4.813-8.2666,3.2935-10.6909,1.9-4.978,1.331-6.5835c-.5713-1.606-3.1362-3.836-2.3765-5.085s4.085-3.7466,3.61-4.3706c-.4741-.6255-6.0806-4.0137-6.2705-5.3525s4.2749-3.5679,5.0366-3.5679c.76,0,2.7554,1.9624,2.7554,1.9624s3.99-3.7451,4.94-3.3887,1.2359,6.333,1.8052,7.4917c.5693,1.16,3.99,4.1045,5.0352,3.3008s.0952-10.6142.0952-10.6142l-4.0865-6.4219s6.2725-2.32,6.5562-2.855c.2856-.5352,1.8057-5.085,2.6606-5.709s3.2315.2671,5.13.624c1.9019.358,4.7573-3.4521,6.2134-4.5761,1.4531-1.1226,9.7412-1.9063,11.2695-2.2027s2.0274-4.4594,1.7735-5.5307c-.2539-1.0694-1.9971-6.7193-3.61-7.4912-1.6162-.7735-.5078-3.7178-.5078-4.5791s-2.0908-.9214-2.7217-1.0122a17.08,17.08,0,0,0-4.3662.5683c-1.1387.3565-3.6533-3.2344-3.5566-4.93.0937-1.6948,6.3994-4.7358,6.7832-5.9262.3779-1.189,5.5713-2.0215,6.46-2.0215.8848,0,8.9942,3.0927,10.6416,2.26s2.0274-4.0444,3.8008-5.47c1.7735-1.4277,7.0938-1.7842,7.0938-1.7842l.3808,1.3081c.378,1.3086-11.0224,12.0118-11.1484,12.7261s1.2656,12.6055,4.8125,11.4165,2.6592-9.2168,4.4355-11.477c1.7705-2.26,5.3174-2.4971,5.7618-3.8052s-4.4327-.2974-3.0391-1.3672.4433-3.6875,1.3291-4.0439c.8877-.358,14.2519-2.5577,15.8984-3.1514,1.6465-.5952,2.0908-3.5684,2.0908-3.5684s5.7012-1.6059,6.5235-2.6753c.8242-1.0713-.4414-6.1845.0664-7.0185.5039-.8311,3.7978-.7134,4.749-1.1289.9492-.4165,3.294-3.4488,4.4961-3.8657s5.0029,2.497,5.8281,2.3779c.8223-.1177.0635-2.08-.4443-2.8535-.5039-.7735,3.1035-1.3672,3.4209-1.606C369.962,56.1321,371.419,54.2893,370.3429,54.2893ZM139.0841,131.2664c-.95.2685-1.8052,2.5859-1.71,3.8354s1.5195,2.9444,2.0894,4.1919c.5708,1.25-1.7105,8.6533-3.7993,8.9209-2.0909.2671-5.4161-1.7842-6.271-3.1225s1.2338-4.0142,1.5195-5.2618c.2856-1.2495-4.6558-6.6015-4.94-7.9389s3.23-4.9068,4.6543-5.3521c1.4263-.4458,3.1123-3.6572,3.8965-3.6572,1.1407,0,6.5547,3.5679,7.2207,4.37C142.4093,128.0559,140.0343,130.9988,139.0841,131.2664Zm14.3471-1.4263c-1.6152.3565-1.4262,3.6558-1.6152,4.4595s-2.8506,1.8735-2.7568.7129-2.0894-5.2617-2.1846-5.9761c-.0952-.7129,3.42-3.6572,4.3706-3.9248C151.2452,125.1116,155.046,129.4837,153.4312,129.84Z" transform="translate(-0.0309 -0.1916)"/><path class="cls-1" d="M495.38,183.805c-1.9375-.5787,6.7129-3.5684,7.3447-2.7359.6338.832.2539,3.6875,2.0273,3.9248s6.59-6.5415,8.74-5.9463c2.1543.5938,1.7744,3.8057,2.1543,4.0425.3808.2388,3.04-1.2187,4.5625-1.0859,1.5195.1357,8.4873,1.6811,8.8681,2.5136.377.8326.127,3.0923,1.7735,4.2813s9.372,2.26,11.1455,3.8071a7.88,7.88,0,0,1,2.5351,4.6377c0,.7129-2.6621,1.5454-2.0273,3.33s2.2812,3.3008,2.8486,3.39c.5713.0889,1.8076-2.3193,3.4239-2.3193a12.9221,12.9221,0,0,1,5.0332,1.3374c.2871.3579-.6641,3.1226,0,3.1226s1.0459-1.7842,2.6289-1.7842,6.5263,1.01,7.2841,1.7842c.7618.7734-1.3291,3.33,1.5206,4.3413,2.8515,1.0107,5.6376.6543,6.9668,1.6045,1.332.9516.5712,6.0078.2539,6.6611-.3174.6553-5.8282,9.2178-6.3331,9.7529-.5078.5342-2.4082-.06-2.8525.6524-.44.7129-3.4834,13.1426-5.3174,14.3906-1.84,1.251-8.997,5.8281-10.1367,6.541s-2.2812,6.6621-2.5312,8.4453c-.2539,1.7823-3.5479,5.5889-4.9434,5.7071a58.9668,58.9668,0,0,1-6.5869,0c-.3809-.1182,3.04,3.9248,2.6621,5.3535-.3809,1.4267-1.9,3.9248-3.4229,4.5176-1.52.5976-5.6982,1.3076-6.206,2.6162-.5078,1.3115,1.0117,2.2031.2539,3.39-.7617,1.19-8.7744,10.5869-9.0586,11.21-.2871.625-1.0449,2.8545-.4746,3.6582.5684.8008,2.4687,1.6045,2.6592,2.6748.19,1.0723-.7588,3.6582-.2842,4.9971.4746,1.3349,3.9883,6.6894,3.4209,7.7587-.5713,1.0694-2.0908,1.7852-2.7559,1.251-.665-.5381-2.8525-4.372-3.42-4.6406-.5713-.2666-4.1816-1.6953-7.3184-3.0342a8.8866,8.8866,0,0,1-4.7011-4.68c-.0479-.4472,1.5683-1.6074.7617-2.4531-.81-.85-4.3242-2.1846-4.1816-3.3.1416-1.1182,1.9453-2.3652,1.8515-3.3926-.0928-1.0244-3.3262-7.3115-5.32-8.7412-1.9941-1.4258-.0967-11.7744.4746-12.665s3.3262-2.9434,3.3262-3.3-2.6611-.8037-2.7549-2.6768,2.0566-19.7119.5371-22.8027c-1.5195-3.0938-5.9551-2.6192-7.7256-4.9971-1.7763-2.3779-4.3086-13.4394-4.6884-15.3428s-3.4209-3.8051-3.294-4.4a10.4777,10.4777,0,0,1,3.5469-5.9462c2.7861-2.26-2.0274-3.0923-2.0274-3.6861s5.1944-8.3252,6.4629-9.04c1.2666-.7134,2.5323.2382,3.6709-1.07,1.1426-1.3081,5.8916-7.9687,6.0821-8.8012s.3173-3.5078-1.3926-3.4488S496.7726,184.2205,495.38,183.805Z" transform="translate(-0.0309 -0.1916)"/><path class="cls-1" d="M450.2013,35.6912c-1.5293.1553-4.4209,2.3188-5.1338,2.8535-.71.5347-2.6582,3.5684-2.5655,4.5049.0967.9365,2.2364,4.7724,2.711,4.9067s2.042-2.186,2.3262-2.0532c.2871.1348,1.5683,2.499,2.4228,1.7407s.8555-3.123,1.8525-3.123c1,0,3.61.1787,4.3233-.3565s1.9492-2.3125,2.6133-2.3383,2.4238.42,2.5175-.7388c.0967-1.1587-4.75-4.3267-5.3212-5.396-.5713-1.0713-.9-.1348-1.7579.3564C453.337,36.5384,452.3858,35.4676,450.2013,35.6912Z" transform="translate(-0.0309 -0.1916)"/><path class="cls-1" d="M461.6153,45.6057c-1.6074.3775-3.2929,0-4.0517.2974-.7608.2979-2.3438,3.39-1.52,3.7466.8223.3564,5.9522.1782,5.8252.7734s-2.7851,1.6651-1.7734,2.4385c1.0156.7734,4.1182-.0605,4.1816.8926.0635.95-2.4716,3.3886-.7617,3.8056,1.7139.4156,8.3633,3.21,9.3125,3.33.9512.1192,1.2686-1.13,2.1543-1.13.8877,0,5.6377,1.9628,7.4111,1.6059a7.57,7.57,0,0,0,3.7373-2.1406c.19-.3565-1.8369-1.7251-1.9638-2.0225s.9521-1.3672,2.5322-2.3188c1.5859-.9522,2.4717-2.0215.4443-2.5562-2.0244-.5366-8.4238-.417-8.9316-1.7256-.5049-1.3081-.5049-6.3037-.6953-6.541s-2.1533-.8325-2.3438,0-1.2666,4.1636-1.9,4.2813-2.1543-2.26-2.2813-2.4971c-.127-.2388-3.4844-.0591-3.6738-.8325s-2.4053-2.26-3.3574-2.0816C463.0118,43.1087,463.3927,45.19,461.6153,45.6057Z" transform="translate(-0.0309 -0.1916)"/><path class="cls-1" d="M520.3663,50.9886c-1.0547-.1167-2.7559,1.3383-2.9463,1.7836s-4.2744,8.4419-3.9912,8.6368c.2871.1933,2.2666-1.1768,3.4629,0,1.1934,1.1753,3,3.3159,3,3.3159s6.2695-2.855,8.17-2.6768c1.9.18,5.9854,2.6768,5.9854,2.6768s-1.8037,1.1587-1.71,1.8735c.0967.7129,5.0371,4.8159,3.61,5.2617a16.3172,16.3172,0,0,0-4.56,2.231c-.9512.8022-1.4258,2.6758.8555,2.6758s5.0332-1.1607,5.5107-.7134c.4746.4458-.7607,4.5488,1.4238,4.727,2.1865.1783,5.1328-.8022,5.5108,0,.3808.8023.664,1.6949,1.5224,1.606.8526-.0894,3.3233-1.606,2.5655-3.479-.7618-1.8735.5673-5.9766,1.0449-5.9766.4746,0,3.23-.3564,4.4629-1.4277,1.2353-1.0693,5.0185-3.9185,4.5049-4.813a6.1326,6.1326,0,0,0-2.127-1.6977s-1.0459,2.7646-2.8525,3.0332c-1.8038.2675-8.9307,2.7646-9.7862.2675s1.14-6.4233-.7578-7.85c-1.9014-1.4277-9.4062-7.85-10.832-7.2256s-2.5654,2.23-3.3262,1.4278c-.7588-.8037-.2842-3.6572-.2842-3.6572s-4.6562.0888-5.3213.7128c-.664.6255-1.0449,1.8731-1.6162,1.6949S521.9825,51.1663,520.3663,50.9886Z" transform="translate(-0.0309 -0.1916)"/><path class="cls-1" d="M555.9972,102.9905a13.4128,13.4128,0,0,1-2.7246-.1191c-.254-.1783,1.3925-1.6651,1.71-2.378s-5.3848-3.9248-5.9551-4.9355c-.5683-1.0108.1905-8.3843.1905-8.6231,0-.2368-1.4571-.832-2.85.12s-1.71,4.103-3.9278,3.686c-2.2178-.4155-4.1181-.8911-4.623-1.7827-.5078-.8926,2.0273-4.937,1.457-5.4126a41.5718,41.5718,0,0,0-5.5117-2.854c-1.0147-.3565-4.1182-1.0708-4.9395-.5361-.8252.5361,0,2.6772-.5713,3.4506-.5712.7715-2.9121.7715-2.7226,1.6646.19.8911,2.0244,4.103,1.8974,4.5791-.123.4756-2.5312,1.13-2.5947,1.8428s2.4717,3.7465,2.5352,4.5791c.0595.832-.8887,1.8427-1.27,2.26-.3779.4156-2.1543.8911-2.1543,1.4868s1.0792,5.7676.7618,6.3038-2.0274.95-2.6592,1.07c-.6348.1191-1.7734-3.33-2.4717-3.4492s-2.3437.3569-2.5342.12c-.1875-.2388.4434-6.4233.0664-6.5415-.3838-.1192-6.8437,1.7241-8.6806.5937-1.8369-1.1284-6.1426-7.1347-6.27-7.9672-.1269-.834.127-4.2222,1.2666-5.0547s6.208-3.627,6.335-4.044c.124-.417-3.4863-2.6167-3.2959-3.5683s3.8008-3.33,3.7373-4.8765a49.8181,49.8181,0,0,0-2.2148-8.9194c-.3809-.4756-2.0909,1.4868-2.4082-.5347a27.7645,27.7645,0,0,0-2.3438-6.4824c-.19-.0586-2.3418-.3565-2.9131.1782-.5713.5366-3.6738,3.0337-3.3564,3.5684s4.0517,1.3686,4.3681,2.082-1.7734,1.4863-1.456,2.5557c.3174,1.0712,1.71,3.0927.7617,3.39-.9521.2978-3.9912-1.0108-4.9434-1.4277-.9482-.4151-4.4316-.8321-4.2412,0s2.3409,1.9624-.1269,1.7841c-2.4717-.1782-11.7842-4.2812-13.5547-4.1616-1.7734.1177-1.1416,6.0654-4.3086,3.686-3.166-2.3779-7.0449-6.185-8.3359-6.0654-1.293.1192-6.7373,2.26-7.4991.2388-.7607-2.023,3.167-3.5684,1.3936-4.877s-16.0889-6.08-17.2285-5.8945c-1.1416.186-2.5342,2.0894-4.0547,1.97s-.38-3.4492-1.3926-3.5683c-1.0146-.1177-3.6738,2.4985-4.6894,2.7358-1.0118.2373-14.4414-2.0215-15.4541-3.33-1.0118-1.31,2.4531-2.2451,1.9795-3.1377-.4747-.8911-9.167-2.4971-9.5479-2.0967s-.7617,1.7837-1.3779,2.2749c-.6192.4912-9.7373-2.69-11.7012-3.8794s-2.4082-2.4985-3.1035-2.2011c-.6983.2978-2.7256,3.5683-4.8164,3.5683-2.0869,0-2.5313.0606-3.0391.7735s-.3808,4.34-1.2656,5.0547c-.8887.7128-5.0518.7583-5.5986,1.8354-.16.3145,2.0908,4.0576,2.0664,4.6831s-4.167.2315-4.6407.2315-3.5136.1176-3.6738.5634c-.1572.4468.57,4.6983,1.2051,5.2344.6318.5347,3.04-.7734,3.5469,0,.5048.772,3.8007.4155,4.1152.772.3174.3564,1.7734,2.6753.5713,3.8052s-5.0674,3.0927-5.32,3.8662-2.1543,2.0815-2.1543,2.6753-1.33,3.0332.1269,3.5683,4.4981-.4761,4.7491.5952c.2539,1.0694-1.2022,3.4488,1.8369,4.1617,3.0429.7133,10.0732.1782,10.0732,1.3671,0,1.1905-7.1787,8.0884-9.3867,8.3858-2.2061.2978-2.0791,2.7344.96,2.7344,3.0429,0,14.6962-5.2315,15.0136-6.7178.3174-1.4883.9512-3.4507,1.52-3.8071.5712-.3565,3.42-1.7842,3.9912-.8912.5713.8912,1.6953,1.9776,2.3115,1.5757s-.0488-1.5171,1.9941-1.5171c2.045,0,11.3545-.3125,11.7832.1787.4258.4908,1.4717,3.39,2.5655,3.5679s3.2295-.6235,3.9423-.4018a13.628,13.628,0,0,1,3.8008,2.6318c.2393.5347.7139,6.72-.1748,7.3145-.8857.5937,0,2.706,1.7735,3.4189a1.6767,1.6767,0,0,1,1.0791,2.4385c-.127.5346,3.2929,3.5678,6.205,5.2915,2.9131,1.7256,5.7022,4.3418,5.4483,4.8178-.2539.4742-2.3418,2.4971-3.2305,1.5455s-3.831-2.6167-4.0244-1.4566c-.1875,1.16,3.9941,4.9946,2.3779,7.5825-1.6162,2.586,2.1846,20.6934,4.8916,22.2989s4.9883,6.4223,4.417,8.3842c-.5674,1.9629,5.8926,9.99,8.3633,10.1685,2.4688.1787-1.0449-12.6655-1.4258-12.7544s-2.8486-.8931-2.8486-1.8735c0-.982.6641-3.5679,1.5195-3.3008s3.0752.9819,3.628,1.7842c.5507.8022,1.121,5.709,1.8828,7.3149.7588,1.6055,3.8945,12.0415,2.1845,13.4692-1.71,1.4258,10.6416,8.3843,13.1123,8.919,2.4688.5347,5.3213-1.0708,6.65,0s8.9307,3.6138,9.88,4.6606c.9522,1.0484.3809,3.5454,1.6162,3.5454s2.375-2.23,2.375-2.23.4776-3.2115.4776-3.5679-4.0879-.5347-3.9912-1.5171c.0937-.98,2.8486-1.3369,2.9423-3.21.0967-1.873.7618-6.1543-.3769-6.2451-1.1426-.0879-4.94-.98-5.6084-.0879-.6641.8916-3.2295,4.0142-4.1787,4.2813-.9512.2676-3.61-1.4273-4.085-2.9444-.4766-1.5166-.38-6.0649-.0967-6.2436s2.5655-8.2056,3.5176-8.9189c.9483-.7144,4.1787-3.3008,5.5108-2.5879,1.3291.7148,5.2236,1.25,5.8886.9819s-.8554-3.1226.4776-4.103c1.3291-.982,2.4687.0893,3.9882.7133s4.7491.0889,6.0821-.0893c1.3291-.1782,3.8008-.0889,3.8945.9819.0967,1.07-1.33,2.4971-.8857,3.8643.4414,1.3672.958,1.665.8916,2.082-.0694.4151-2.6045,1.8428-1.8428,2.6753s3.7373,5.0547,4.749,3.7466c1.0156-1.3086-1.2021-11.9224,2.7891-13.5283s8.457-1.3384,8.457-4.0137,2.1846-9.188,3.5137-9.5449c1.332-.3565,2.5654-2.0513,3.707-3.21,1.1387-1.16,10.8291-2.8555,10.8291-3.5683s-1.2334-4.0743-.4746-5.62c.7607-1.5454,4.5625-3.813,5.0029-3.5122.4444.3-1.2656,2.7993-1.1386,3.4531s.8847,2.08,2.0273,1.13c1.1387-.9516,3.9248-3.8144,3.9912-4.583.0635-.769-2.6621-3.8613-3.17-5.289a1.7268,1.7268,0,0,0-2.7217-.7129c-.5713.5346-4.75,3.0923-5.5742,2.5576a1.7939,1.7939,0,0,1-.6982-2.5576,11.8558,11.8558,0,0,1,3.5468-2.8555c.8252-.2373,5.8282-1.0693,7.0948-.2373,1.2685.8325,1.84,3.5669,3.7373,2.7363,1.9-.8325,6.2724-4.937,6.082-6.0068S556.3751,102.9905,555.9972,102.9905Zm-67.793-.9365c-.71.3564-4.4844-5.2754-4.3691-5.62.2353-.7134,3.1357-1.3824,3.4687-1.3218S488.9171,101.6975,488.2042,102.054Zm6.9853-1.606c-1.0937.8037-6.2246-8.3843-5.6084-9.0971.8106-.9351,3.8985-1.8731,4.5147-1.5621C494.712,90.1013,496.28,99.6458,495.19,100.448Zm21.6631,24.3374c-1.206,0-1.9,1.3081-3.2,1.4561-1.2988.15-.7275-.7432-.9179-1.1587-.1905-.417,2.0879-2.251,2.375-2.4683.5283-.4,2.0908-.0893,3.2627,0s.6318,1.2193.8222,1.8218S518.0548,124.7854,516.8526,124.7854Zm.1875-5.4717s-1.5205,1.6949-1.9941,1.6949-2.6592-5.396-3.0879-5.2617a10.636,10.636,0,0,0-2.375,1.8281,13.7576,13.7576,0,0,1-1.4258,2.5425c-.4267.3564-2.6592-.6241-2.0908-1.74.57-1.1152,3.1846-3.88,2.4707-4.46-.4375-.355-6.082,1.3823-6.4141.8476s-.9033-2.4971,0-3.5683a19.2868,19.2868,0,0,1,5.8916-3.5664c.9522-.1348,3.8008.1328,4.417.6235.62.4912-.2832,4.6816,0,5.1289.2871.4458,5.7022.7134,6.5088,1.1147a17.584,17.584,0,0,1,2.7549,1.65c.2871.3125-1.0449,3.1226-1.4228,3.1665C519.8917,119.3587,517.04,119.3137,517.04,119.3137Zm6.2383,3.9849a3.1046,3.1046,0,0,1-3.23-1.397c-.19-.6543.4444-1.0713.9522-1.2495.5039-.1782,2.9248-.5678,3.5771-.7129a1.5151,1.5151,0,0,1,1.7432,1.7056C526.2247,122.7566,524.8321,123.0012,523.2784,123.2986Z" transform="translate(-0.0309 -0.1916)"/><path class="cls-1" d="M328.6026,107.5725a4.3249,4.3249,0,0,0-1.955,1.2071c-.3409.4726-1.2774,1.3491-.8125,1.5381a1.4468,1.4468,0,0,0,1.6953-.1861,9.11,9.11,0,0,1,2.1777-1.4668C330.1378,108.5242,329.1407,107.4383,328.6026,107.5725Z" transform="translate(-0.0309 -0.1916)"/><path class="cls-1" d="M310.7921,106.3777c-.26-.168-1.7315-.1977-1.75.1812-.0176.3808.8525,5.2739.6015,5.5337-.248.26-1.6494,3.02-2.6767,3.5649-1.0274.5469-2.58,1.0107-2.98,1.644a6.2194,6.2194,0,0,0-1.1,2.0122c-.0244.544,1.0361,2.2325.5224,2.6421a3.0165,3.0165,0,0,0-.9365,1.1861c-.0449.2158-.3261.9272.2364.92.5644-.0064,1.4013-.6528,1.8574-.5938a8.0443,8.0443,0,0,1,1.3535.3248c.59.1752,1.6738.3051,1.87-.1573.2-.46-.5254-1.479-1.0088-1.6494s-1.5947-.4111-1.6553-.6313-.5205-1.5879-.3662-1.8706.8067-1.4473,1.19-1.3912a9.8463,9.8463,0,0,1,2.7138.5772c.791.4033,2.0694.7959,2.6553,1.7705s1.124,2.8916,1.4414,2.9082c.3145.0166.4678-1.7192,1.4346-2.7949s1.3545-2.544,2.46-2.541a14.7416,14.7416,0,0,1,3.1026.16,4.1308,4.1308,0,0,0,1.74-.018s.626-.9488.0733-1.4683c-.5567-.5186-1.3331-1.1592-1.3331-1.1592s.127-1.19-.1748-1.46a1.375,1.375,0,0,0-1.1025-.42,3.6408,3.6408,0,0,1-2.06-.2881c-1.0674-.4551-2.9434-.9156-3.6416-1.751S311.2511,106.6736,310.7921,106.3777Z" transform="translate(-0.0309 -0.1916)"/><path class="cls-1" d="M324.3067,111.3811a10.2057,10.2057,0,0,0-2.2422.4287c-.4775.1934-1,.1119-1.29.6421-.2871.5288-.8369.9912-.0547,1.1407a5.5909,5.5909,0,0,0,3.0332-.606A3.7631,3.7631,0,0,0,324.3067,111.3811Z" transform="translate(-0.0309 -0.1916)"/><path class="cls-1" d="M305.8067,126.1844c-.39.13-.7373-.7647-1.2265-.79-.4932-.0259-.77,1.4121-.8067,2.1372a23.8059,23.8059,0,0,1-.8945,5.4009c-.5557,1.2783-3.0547,6.4507-4.14,7.0488-1.081.5967-3.3291,2.0064-4.0273,1.8975s-1.2988-.7207-1.2871-1.0108a4.627,4.627,0,0,0-.1631-.9531s.5254.0274.5352-.1538.2382-.57-.0371-.6924a1.859,1.859,0,0,0-1.084-.0918c-.1455.1011-.6319-.07-.4385,1.0664.19,1.1363.6074,1.92.1455,2.8037a2.1111,2.1111,0,0,1-1.5381,1.2286c-.5683.1508-.1846.1718-.7949,1.1933-.6133,1.021-.668,1.4531-1.5527,1.5894a9.4259,9.4259,0,0,1-2.3492-.1211l-.34-.9624a.9926.9926,0,0,0-.7417.07c-.2554.2051.0449.5117-.5273.7368-.5743.2237-3.62-.3515-4.4429.313-.8237.666-.9761,1.6392-2.5381,2.32s-3.4155.8579-3.4385,1.3477-.3262,1.29-.0693,1.4126.852-.1738,1.7358.09c.8823.2632,1.9077.8613,2.7129.5757s2.1636-1.1406,2.8613-1.3779a10.1094,10.1094,0,0,1,2.5757-.9546c.6846.0346,1.8008-.18,2.2119.06s.9351.2656.563,1.39c-.37,1.1255-.8745,1.7524-.12,2.5s.6133,1.5029,1.2568,1.2627a2.259,2.259,0,0,0,1.7579-1.4336c.5293-1.1709.5205-2.0425,1.3837-2.4883a14.3394,14.3394,0,0,1,4.3545-.6465c.42.0757.9424,1.248,1.4922.7856s.4229-1.1767,1.5557-1.6616a8.2284,8.2284,0,0,1,3.0459-.8779c.417.13,1.2988.3945,1.2812.7749s-.5224,1.0078-.1123,1.2466c.4082.24.5987.6841,1.1758-.375.58-1.0586,1.2959-1.73,1.4473-2.648s-.9522-1.03-.5987-2.8642c.3506-1.834,1.3477-4.9961,1.5049-6.023a19.8573,19.8573,0,0,1,1.958-4.5278c.4561-.6861,1.668-3.8916,1.4776-4.3369s-.91-1.899-1.2393-2.7329.0606-2.3389-.2929-2.63a.6412.6412,0,0,0-1.0665.2178C306.8429,125.784,306.3233,126.0105,305.8067,126.1844Z" transform="translate(-0.0309 -0.1916)"/><path class="cls-1" d="M281.7022,152.9158a7.8393,7.8393,0,0,1-1.9731.4429c-.4761.03-1.2163.1-1.0879.705a10.5241,10.5241,0,0,0,.4883,1.878c.2807.7236-.2315,1.5136.1313,1.6406s.97-.44,1.2676-1.1313c.2974-.6934.1416-.7525,1.0586-1.1968a3.3737,3.3737,0,0,1,2.1362-.5449c.7857.0947,1.1861.5512,1.3174.0131a5.827,5.827,0,0,0,.1133-2.3354c-.189-.4453-.5815-1.065-1.062-.9277a2.572,2.572,0,0,0-1.4019.6362C282.3531,152.5139,282.3048,152.7166,281.7022,152.9158Z" transform="translate(-0.0309 -0.1916)"/><path class="cls-1" d="M275.9464,153.1077c-.4248-.0029-.7329-.0923-1.5244-.0786s-.9229-.5391-1.5577-.5166c-.6328.021-.5512.5166-1.0556,1.1435-.5064.627-.9761.5528-1.6319,1.0064-.6538.4546.3614,1.27-.0751,1.5737a.9465.9465,0,0,0-.4639.8613c.0483.0982.6479.7842.9863.31.34-.4712.6162-.73.9292-.6587s.1631-1.19.53-1.1709.5268-.355.6221,1.1211a6.6708,6.6708,0,0,1-.4727,3.4082c-.4077.7944-.1509,1.68.2222,1.7539s.7641-.8325,1.0376-.8174.3217,1.2149.58,1.337.9068-.2251,1.0835-.5967.1739-1.4077.5059-2.8067.8564-1.3735,1.269-2.2768c.4141-.9048.3716-2.2281-.0922-2.4365S276.27,153.1092,275.9464,153.1077Z" transform="translate(-0.0309 -0.1916)"/></g><g id="レイヤー_2" data-name="レイヤー 2"><path class="cls-2" d="M297.1251,144.4726c-5.22-28.0689-32.7662-44.5847-58.9125-49.5488-37.924-7.2-76.8947,6.3358-106.9729,29.3127-23.15,17.684-41.5209,40.7892-56.3756,65.6882-.9771,1.6379-2.458,5.2938-.2965,1.6706,24.2712-40.6825,60.6795-76.752,107.5915-89.1234,29.6153-7.81,64.4192-5.7509,89.6458,13.1439,11.1928,8.3835,19.7345,20.15,22.32,34.0529-.2122-1.1408,3.3182-3.4849,3-5.1961Z" transform="translate(-0.0309 -0.1916)"/><path class="cls-2" d="M293.4248,282.0461c13.96-25.7728,27.4844-52.253,36.7589-80.1347,4.49-13.4981,9.108-28.8694,6.8923-43.26-2.3894-15.5181-15.3663-20.125-29.3928-17.3566a51.96,51.96,0,0,0-10.6808,3.2307c-1.4128.6167-2.1742,4.8369-2.7547,5.09,7.2154-3.15,17.0425-5.22,25.1321-3.327,21.0719,4.931,15.2935,33.8495,11.3457,48.6869-8.2341,30.9463-23.4327,60.1614-38.5993,88.1625-1.9953,3.6838.3724.6177,1.2986-1.0921Z" transform="translate(-0.0309 -0.1916)"/><path class="cls-2" d="M297.1406,144.6052c.37-18.1181-3.0733-36.3023-8.2662-53.5986C283.1979,72.0994,275.177,53.6073,264.1062,37.21c-9.1678-13.5784-21.187-26.99-36.879-32.9261-15.2993-5.7871-31.0366-1.7212-43.8778,7.77C159.8912,29.3933,145.1978,58.29,133.3524,84.15c-.445.9716-.2385.9007.3674.2121a15.447,15.447,0,0,0,2.1214-3.6742C150.3363,49.043,181.86-8.5124,225.992,10.1873c14.5539,6.1668,25.8118,18.6306,34.5729,31.4231,10.3967,15.1806,18.1018,32.2237,23.7764,49.6871,6.0744,18.6942,10.1711,38.5071,9.7683,58.2385.0167-.8176,2.997-3.2676,3.031-4.9308Z" transform="translate(-0.0309 -0.1916)"/><path class="cls-2" d="M182.72,121.385c12.5678-20.5835,33.1105-41.6893,59.3188-39.7231,19.2395,1.4434,34.9271,15.3387,43.4928,31.9236a79.4668,79.4668,0,0,1,8.578,35.9505c-.0056-.7844,3.0427-3.2857,3.031-4.9308-.1552-21.671-8.6337-44.0832-26.0723-57.7C254.1447,73.6911,232.2655,73.45,214.3466,84.91c-13.33,8.525-23.1874,21.4687-31.33,34.8048-.9953,1.63-2.4949,5.2713-.2965,1.6707Z" transform="translate(-0.0309 -0.1916)"/><path class="cls-2" d="M294.2477,149.6158c21.13-21.0528,44.4435-40.4167,70.7734-54.6487,19.7775-10.69,41.8212-18.7255,64.52-19.1636,18.438-.3559,36.6138,4.8859,51.3224,16.1744,16.4153,12.5983,27.1852,31.0834,33.9329,50.37,10.9585,31.3222,12.554,65.4009,10.8994,98.27.0429-.8522,2.9464-3.251,3.031-4.9308,1.4927-29.652.26-60.0221-7.847-88.7452-5.802-20.5577-15.4912-40.765-31.3971-55.4251C457.9352,62.4406,413.3087,67.9485,377.2813,85.05c-30.2478,14.3577-56.6882,35.9721-80.2789,59.4759-1.2376,1.2331-2.0039,4.3422-2.7547,5.09Z" transform="translate(-0.0309 -0.1916)"/><path class="cls-2" d="M473.7265,93.69c-1.9056-18.746-6.4228-39.4887-20.2078-53.3335-10.41-10.4547-24.8529-14.103-39.25-12.3026-16.5918,2.075-32.1883,10.0349-45.7469,19.4926a191.4574,191.4574,0,0,0-42.5743,41.5816c-13.7015,18.0788-24.9353,38.4288-31.7492,60.1105-.3542,1.127.7888-.5974.8936-.7268a12.14,12.14,0,0,0,1.9591-3.6085c11.8115-37.5839,37.8231-71.3279,70.382-93.4127,22.5488-15.2948,56.7145-28.7862,80.5045-8.3418,15.7013,13.4933,20.7589,35.81,22.7576,55.472-.0674-.6628,3.19-3.3657,3.031-4.9308Z" transform="translate(-0.0309 -0.1916)"/><path class="cls-2" d="M297.1406,144.6052c2.6066-14.0915,5.6359-28.1212,8.9678-42.0575,2.5786-10.7856,5.3426-21.5517,8.744-32.1107a139.0663,139.0663,0,0,1,4.9831-13.548c.92-2.0852,1.8931-4.6161,3.8934-5.9413,6.1388-4.067,8.6483,9.8392,9.3562,13.1048-.2359-1.0881,3.363-3.5215,3-5.1961-.7173-3.3093-2.8913-16.3094-8.9262-13.43-2.4994,1.1926-4.2447,4.4864-5.5943,6.7275a79.9652,79.9652,0,0,0-5.5809,11.443c-8.6081,21.3855-13.3605,44.56-18.0962,67.0493-1.323,6.2827-2.61,12.5761-3.7779,18.89.182-.9842,2.7135-3.2144,3.031-4.9308Z" transform="translate(-0.0309 -0.1916)"/><path class="cls-2" d="M86.3839,119.7318c18.7609-32.6232,48.5489-63.0379,86.0326-72.6159,33.4815-8.5553,65.84,4.34,87.5791,30.5254,17.1475,20.6548,27.2894,46.3368,34.1295,72.0274-.2669-1.0023,3.429-3.5847,3-5.1961-10.6882-40.1438-31.7044-85.9943-73.8714-100.8993-33.24-11.75-68.4918,1.56-94.4457,23.1459-17.5662,14.61-31.5961,32.98-42.9437,52.7126-1.6763,2.915-1.21,3.3085.52.3Z" transform="translate(-0.0309 -0.1916)"/><path class="cls-3" d="M297.1251,143.9052c-5.22-28.0689-32.7662-44.5847-58.9125-49.5488-37.924-7.2-76.8947,6.3359-106.9729,29.3128-23.15,17.684-41.5209,40.7892-56.3756,65.6882-.9771,1.6379-2.458,5.2938-.2965,1.6706,24.2712-40.6826,60.6794-76.7521,107.5915-89.1235,29.6153-7.81,64.4192-5.7509,89.6458,13.1439,11.1928,8.3835,19.7345,20.15,22.32,34.0529-.2122-1.1408,3.3182-3.4849,3-5.1961Z" transform="translate(-0.0309 -0.1916)"/><path class="cls-3" d="M293.4248,281.48c13.96-25.7729,27.4844-52.2533,36.7589-80.1352,4.49-13.4982,9.108-28.87,6.8923-43.26-2.3894-15.5182-15.3662-20.1251-29.3928-17.3568a51.96,51.96,0,0,0-10.6808,3.2307c-1.4128.6167-2.1742,4.8369-2.7547,5.09,7.2154-3.15,17.0425-5.22,25.1321-3.3269,21.0719,4.9311,15.2935,33.85,11.3457,48.6872-8.234,30.9465-23.4327,60.1618-38.5993,88.163-1.9953,3.6839.3725.6178,1.2986-1.092Z" transform="translate(-0.0309 -0.1916)"/><path class="cls-3" d="M297.1406,144.0378c.37-18.1181-3.0733-36.3023-8.2662-53.5986C283.1979,71.532,275.177,53.04,264.1062,36.643c-9.1678-13.5784-21.187-26.99-36.879-32.9261-15.2993-5.7871-31.0366-1.7212-43.8778,7.77-23.4582,17.3387-38.1516,46.2354-49.997,72.0958-.445.9716-.2385.9007.3674.2121a15.447,15.447,0,0,0,2.1214-3.6742C150.3363,48.4756,181.86-9.08,225.992,9.62c14.5539,6.1668,25.8118,18.6306,34.5729,31.423,10.3967,15.1807,18.1018,32.2238,23.7764,49.6872,6.0744,18.6942,10.1711,38.5071,9.7683,58.2385.0167-.8176,2.997-3.2676,3.031-4.9308Z" transform="translate(-0.0309 -0.1916)"/><path class="cls-3" d="M182.72,120.8176c12.5678-20.5835,33.1105-41.6892,59.3188-39.723,19.2395,1.4434,34.9271,15.3387,43.4928,31.9236a79.4661,79.4661,0,0,1,8.578,35.95c-.0056-.7844,3.0427-3.2857,3.031-4.9308-.1552-21.6709-8.6337-44.0831-26.0723-57.7-16.9236-13.2144-38.8028-13.4556-56.7217-1.9961-13.33,8.5251-23.1874,21.4687-31.33,34.8048-.9953,1.63-2.4949,5.2713-.2965,1.6707Z" transform="translate(-0.0309 -0.1916)"/><path class="cls-3" d="M294.2477,149.0484c21.13-21.0528,44.4435-40.4167,70.7734-54.6487,19.7775-10.69,41.8212-18.7254,64.52-19.1636,18.438-.3558,36.6138,4.886,51.3224,16.1746,16.4153,12.5984,27.1852,31.0836,33.9329,50.37,10.9585,31.3224,12.554,65.4013,10.8994,98.2705.0429-.8522,2.9464-3.251,3.031-4.9308,1.4927-29.6522.26-60.0225-7.847-88.7457-5.802-20.5578-15.4912-40.7651-31.3971-55.4253-31.5471-29.0765-76.1736-23.5687-112.2011-6.4676-30.2478,14.3577-56.6882,35.9721-80.2789,59.4759-1.2376,1.2331-2.0039,4.3422-2.7547,5.09Z" transform="translate(-0.0309 -0.1916)"/><path class="cls-3" d="M473.7265,93.1223c-1.9056-18.7461-6.4228-39.4887-20.2078-53.3335-10.41-10.4547-24.8529-14.1031-39.25-12.3026-16.5918,2.075-32.1883,10.0349-45.7469,19.4926A191.4574,191.4574,0,0,0,325.9479,88.56c-13.7015,18.0788-24.9353,38.4287-31.7492,60.11-.3542,1.127.7888-.5974.8936-.7268a12.14,12.14,0,0,0,1.9591-3.6085c11.8115-37.5839,37.8231-71.3279,70.382-93.4127,22.5488-15.2949,56.7145-28.7862,80.5045-8.3418,15.7013,13.4932,20.7589,35.81,22.7576,55.472-.0674-.6629,3.19-3.3657,3.031-4.9308Z" transform="translate(-0.0309 -0.1916)"/><path class="cls-3" d="M297.1406,144.0378c2.6066-14.0915,5.6359-28.1212,8.9678-42.0575,2.5786-10.7856,5.3426-21.5517,8.744-32.1107a139.0663,139.0663,0,0,1,4.9831-13.548c.92-2.0852,1.8931-4.6161,3.8934-5.9414,6.1388-4.0669,8.6483,9.8393,9.3562,13.1049-.2359-1.0881,3.363-3.5215,3-5.1961-.7173-3.3093-2.8913-16.3094-8.9262-13.43-2.4994,1.1926-4.2447,4.4864-5.5943,6.7275a79.9652,79.9652,0,0,0-5.5809,11.443c-8.6081,21.3855-13.3605,44.56-18.0962,67.0492-1.323,6.2828-2.61,12.5762-3.7779,18.89.182-.9842,2.7135-3.2144,3.031-4.9308Z" transform="translate(-0.0309 -0.1916)"/><path class="cls-3" d="M86.3839,119.1644c18.7609-32.6232,48.5489-63.0379,86.0326-72.6159,33.4815-8.5552,65.84,4.34,87.5791,30.5254,17.1475,20.6548,27.2894,46.3368,34.1295,72.0274-.2669-1.0023,3.429-3.5847,3-5.1961C286.4369,103.7614,265.4207,57.911,223.2537,43.006c-33.24-11.75-68.4918,1.56-94.4457,23.1458-17.5662,14.61-31.5961,32.98-42.9437,52.7126-1.6764,2.915-1.21,3.3085.52.3Z" transform="translate(-0.0309 -0.1916)"/><path class="cls-4" d="M297.1251,143.0541c-5.22-28.0689-32.7662-44.5847-58.9125-49.5488-37.924-7.2-76.8947,6.3359-106.9729,29.3128-23.15,17.684-41.5209,40.7892-56.3756,65.6882-.9771,1.6379-2.458,5.2938-.2965,1.6706,24.2712-40.6825,60.6794-76.7521,107.5915-89.1235,29.6153-7.81,64.4192-5.7509,89.6458,13.1439,11.1928,8.3835,19.7345,20.15,22.32,34.0529-.2122-1.1408,3.3182-3.4849,3-5.1961Z" transform="translate(-0.0309 -0.1916)"/><path class="cls-4" d="M293.4248,280.63c13.96-25.7732,27.4844-52.2538,36.7589-80.1359,4.49-13.4983,9.108-28.87,6.8923-43.2607-2.3893-15.5182-15.3661-20.1255-29.3928-17.3572a51.96,51.96,0,0,0-10.6808,3.2307c-1.4128.6167-2.1742,4.8369-2.7547,5.09,7.2153-3.15,17.0425-5.22,25.1321-3.3269,21.072,4.9313,15.2935,33.85,11.3457,48.6879-8.234,30.9468-23.4327,60.1623-38.5993,88.1639-1.9953,3.6838.3725.6177,1.2986-1.0921Z" transform="translate(-0.0309 -0.1916)"/><path class="cls-4" d="M297.1406,143.1867c.37-18.1181-3.0733-36.3023-8.2662-53.5986-5.6765-18.9072-13.6974-37.3993-24.7682-53.7962-9.1678-13.5784-21.187-26.99-36.879-32.9261-15.2993-5.7871-31.0367-1.7212-43.8778,7.77-23.4582,17.3388-38.1516,46.2355-49.997,72.0959-.445.9716-.2385.9007.3674.2121a15.447,15.447,0,0,0,2.1214-3.6742C150.3363,47.6246,181.86-9.9309,225.992,8.7688c14.5539,6.1668,25.8118,18.6306,34.5729,31.4231,10.3967,15.1806,18.1018,32.2237,23.7764,49.6871,6.0744,18.6942,10.1711,38.5071,9.7683,58.2385.0167-.8176,2.997-3.2676,3.031-4.9308Z" transform="translate(-0.0309 -0.1916)"/><path class="cls-4" d="M182.72,119.9665c12.5678-20.5835,33.1105-41.6892,59.3188-39.723,19.2395,1.4434,34.9271,15.3387,43.4928,31.9236a79.4661,79.4661,0,0,1,8.578,35.95c-.0056-.7844,3.0427-3.2857,3.031-4.9308-.1552-21.6709-8.6337-44.0831-26.0723-57.7-16.9236-13.2144-38.8028-13.4556-56.7217-1.9961-13.33,8.5251-23.1874,21.4687-31.33,34.8048-.9953,1.63-2.4949,5.2713-.2965,1.6707Z" transform="translate(-0.0309 -0.1916)"/><path class="cls-4" d="M294.2477,148.1973c21.13-21.0528,44.4434-40.4167,70.7734-54.6487,19.7775-10.69,41.8212-18.7254,64.52-19.1635,18.4381-.3558,36.6138,4.8861,51.3224,16.1748,16.4154,12.5986,27.1852,31.0839,33.9329,50.3709,10.9585,31.3226,12.554,65.4018,10.8994,98.2712.0429-.8521,2.9464-3.251,3.031-4.9308,1.4927-29.6524.26-60.0229-7.847-88.7464-5.802-20.5579-15.4912-40.7655-31.3971-55.4258-31.5471-29.0767-76.1735-23.569-112.2011-6.4679-30.2478,14.3577-56.6883,35.9721-80.2789,59.4759-1.2376,1.2331-2.0039,4.3422-2.7547,5.09Z" transform="translate(-0.0309 -0.1916)"/><path class="cls-4" d="M473.7265,92.2712c-1.9056-18.746-6.4228-39.4887-20.2078-53.3335-10.41-10.4547-24.8529-14.103-39.25-12.3026C397.6773,28.71,382.0808,36.67,368.5222,46.1277a191.4574,191.4574,0,0,0-42.5743,41.5816c-13.7015,18.0788-24.9353,38.4288-31.7492,60.11-.3542,1.127.7888-.5974.8936-.7268a12.14,12.14,0,0,0,1.9591-3.6085c11.8115-37.5839,37.8231-71.3279,70.382-93.4127,22.5488-15.2948,56.7145-28.7862,80.5045-8.3418,15.7013,13.4933,20.7589,35.81,22.7576,55.472-.0674-.6628,3.19-3.3657,3.031-4.9308Z" transform="translate(-0.0309 -0.1916)"/><path class="cls-4" d="M297.1406,143.1867c2.6066-14.0915,5.6359-28.1212,8.9678-42.0575,2.5786-10.7856,5.3426-21.5517,8.744-32.1107a139.0663,139.0663,0,0,1,4.9831-13.548c.92-2.0852,1.8931-4.6161,3.8934-5.9413,6.1388-4.067,8.6483,9.8392,9.3562,13.1048-.2359-1.0881,3.363-3.5215,3-5.1961-.7173-3.3093-2.8913-16.3094-8.9262-13.43-2.4994,1.1926-4.2447,4.4864-5.5943,6.7275a79.9652,79.9652,0,0,0-5.5809,11.443c-8.6081,21.3855-13.3605,44.56-18.0962,67.0493-1.323,6.2827-2.61,12.5761-3.7779,18.89.182-.9842,2.7135-3.2144,3.031-4.9308Z" transform="translate(-0.0309 -0.1916)"/><path class="cls-4" d="M86.3839,118.3134c18.7609-32.6232,48.5489-63.038,86.0326-72.6159,33.4815-8.5553,65.84,4.34,87.5791,30.5253C277.1431,96.8776,287.285,122.56,294.1251,148.25c-.2669-1.0023,3.429-3.5847,3-5.1961C286.4369,102.91,265.4207,57.06,223.2537,42.1549c-33.24-11.75-68.4918,1.56-94.4457,23.1459-17.5662,14.61-31.5961,32.98-42.9437,52.7126-1.6763,2.915-1.21,3.3085.52.3Z" transform="translate(-0.0309 -0.1916)"/></g></svg>
